<svg id="Capa_1" data-name="Capa 1" xmlns="http://www.w3.org/2000/svg" viewBox="0 0 1122 119.41"><defs><style>.cls-1{fill:#162045;}.cls-2{fill:#6b8ec3;}</style></defs><title>Avioneta_logotipo</title><path class="cls-1" d="M418.32,9.78,372.75,117.56h7.08l13.55-31.72H446.5l14.78,31.72h14.94L426,9.78Zm-22,69.13L418.48,27h.61l24.18,51.89Z"/><polygon class="cls-1" points="516.56 98.47 515.95 98.47 478.99 9.78 462.36 9.78 507.48 117.56 516.72 117.56 560.45 9.78 552.44 9.78 516.56 98.47"/><rect class="cls-1" x="580.46" y="9.78" width="14.01" height="107.79"/><path class="cls-1" d="M720.89,27.18a58.91,58.91,0,0,0-18.71-13.79q-11.31-5.46-26.71-5.46t-26.18,5.39a56.12,56.12,0,0,0-18,13.62A54.08,54.08,0,0,0,620.88,45a58.49,58.49,0,0,0-3.31,18.63,57.41,57.41,0,0,0,3.31,18.4,54.93,54.93,0,0,0,10.39,18.09,56.51,56.51,0,0,0,18,13.78q10.94,5.48,26.18,5.47a64.63,64.63,0,0,0,18.71-2.54A60.15,60.15,0,0,0,709.27,110a55.08,55.08,0,0,0,11.62-9.94A56.81,56.81,0,0,0,729,88.23a61.49,61.49,0,0,0,4.78-12.55,48.31,48.31,0,0,0,1.61-12,54.17,54.17,0,0,0-3.54-18.4A55.51,55.51,0,0,0,720.89,27.18Zm-4.16,56.28a47.94,47.94,0,0,1-9.62,15.47A44.08,44.08,0,0,1,692.94,109a41.57,41.57,0,0,1-17.17,3.61A40.41,40.41,0,0,1,658.68,109a41.36,41.36,0,0,1-13.62-10.09A47.67,47.67,0,0,1,636,83.46a56.92,56.92,0,0,1-3.31-19.79A56.92,56.92,0,0,1,636,43.88a47.67,47.67,0,0,1,9.09-15.47,41.36,41.36,0,0,1,13.62-10.09,40.42,40.42,0,0,1,17.09-3.62,41.58,41.58,0,0,1,17.17,3.62,44.08,44.08,0,0,1,14.17,10.09,47.94,47.94,0,0,1,9.62,15.47,53.67,53.67,0,0,1,3.54,19.79A53.67,53.67,0,0,1,716.73,83.46Z"/><polygon class="cls-1" points="839.14 92.16 838.53 92.16 753.07 7.93 752.3 7.93 752.3 117.56 759.38 117.56 759.38 35.18 760 35.18 845.46 119.41 846.23 119.41 846.23 9.78 839.14 9.78 839.14 92.16"/><polygon class="cls-1" points="1038.55 9.78 943.54 9.78 942 9.78 873.94 9.78 873.94 117.56 943.54 117.56 943.54 109.09 887.96 109.09 887.96 63.98 935.69 63.98 935.69 56.89 887.96 56.89 887.96 18.25 942 18.25 943.54 18.25 983.27 18.25 983.27 117.56 997.28 117.56 997.28 18.25 1038.55 18.25 1038.55 9.78"/><path class="cls-1" d="M1071.8,9.78h-7.7l-45.57,107.78h7.08l13.55-31.72h53.12l14.78,31.72H1122Zm-29.71,69.13L1064.26,27h.61l24.18,51.89Z"/><path class="cls-1" d="M184.6,20l.86-18.41c0-.86.5-1.54,1.06-1.54h0c.58,0,1.06.71,1.07,1.59L188.45,20Z"/><path class="cls-1" d="M186.52,18.73a10.72,10.72,0,1,0,10.72,10.72A10.72,10.72,0,0,0,186.52,18.73Zm0,16.86a6.14,6.14,0,1,1,6.15-6.14A6.14,6.14,0,0,1,186.52,35.59Z"/><circle class="cls-1" cx="186.52" cy="29.45" r="3.41" transform="translate(-1.78 43.64) rotate(-13.28)"/><path class="cls-1" d="M203.55,88.07a18.73,18.73,0,0,1-3.7,2.29,24.51,24.51,0,0,1-4.09,1.53,24.2,24.2,0,0,1-4.3.75,19.18,19.18,0,0,1-4.35-.1c1.43-.26,2.84-.49,4.23-.77s2.77-.59,4.13-1,2.71-.79,4.05-1.25S202.19,88.57,203.55,88.07Z"/><path class="cls-1" d="M205.34,29.5a22.72,22.72,0,0,1,4.52,2.93,27.8,27.8,0,0,1,3.82,3.85,26.64,26.64,0,0,1,3,4.53,21.86,21.86,0,0,1,1.93,5c-.86-1.58-1.74-3.11-2.69-4.6A49.67,49.67,0,0,0,212.81,37a46.64,46.64,0,0,0-3.54-3.9C208,31.84,206.7,30.67,205.34,29.5Z"/><path class="cls-1" d="M169.19,28.66a38.94,38.94,0,0,0-8.45,7.69,36.22,36.22,0,0,0-5.67,9.8,35.82,35.82,0,0,0-2.33,11.08,38.41,38.41,0,0,0,1.13,11.37,31.07,31.07,0,0,1-2-11.4,32.51,32.51,0,0,1,.56-5.82,32.74,32.74,0,0,1,4.18-10.89,33.43,33.43,0,0,1,3.47-4.71A31.45,31.45,0,0,1,169.19,28.66Z"/><path class="cls-1" d="M206.38,94.44a36.37,36.37,0,0,1-9.78,4.61,39.29,39.29,0,0,1-21.54.33,36.29,36.29,0,0,1-9.92-4.33,49.3,49.3,0,0,0,10.13,3.47,45.8,45.8,0,0,0,10.56,1.08,46.32,46.32,0,0,0,10.54-1.39A49.44,49.44,0,0,0,206.38,94.44Z"/><path class="cls-1" d="M201.17,18.94a33.54,33.54,0,0,1,8.19,3.59,37.58,37.58,0,0,1,7.1,5.52,38,38,0,0,1,5.6,7,33.73,33.73,0,0,1,3.67,8.15,54.71,54.71,0,0,0-4.41-7.67,47.2,47.2,0,0,0-5.65-6.72,48.35,48.35,0,0,0-6.78-5.58A54.39,54.39,0,0,0,201.17,18.94Z"/><path class="cls-1" d="M147,44.44a30.91,30.91,0,0,1,2.61-6.85,35.88,35.88,0,0,1,4-6.16,36.65,36.65,0,0,1,5.22-5.2A31.16,31.16,0,0,1,165,22.28a66,66,0,0,0-5.6,4.61,51.91,51.91,0,0,0-4.92,5.25A52.74,52.74,0,0,0,150.37,38,66.3,66.3,0,0,0,147,44.44Z"/><rect class="cls-1" x="58.71" y="10.84" width="2.41" height="70.71" transform="translate(-11.91 22.42) rotate(-19.32)"/><rect class="cls-1" x="104.27" y="-16.78" width="2.41" height="125.95" transform="translate(10.42 111.18) rotate(-58.01)"/><rect class="cls-1" x="158" y="8.06" width="2.41" height="39.89" transform="translate(19.88 109.98) rotate(-40.45)"/><rect class="cls-1" x="61.28" y="44.99" width="98.04" height="2.41" transform="translate(-2.07 87.1) rotate(-42.73)"/><rect class="cls-1" x="277.58" y="44.99" width="70.71" height="2.41" transform="translate(165.81 326.22) rotate(-70.68)"/><rect class="cls-1" x="204.39" y="44.99" width="125.95" height="2.41" transform="translate(16.15 148.69) rotate(-32)"/><rect class="cls-1" x="193.7" y="26.8" width="39.89" height="2.41" transform="translate(53.73 172.42) rotate(-49.55)"/><rect class="cls-1" x="261.34" y="-2.83" width="2.41" height="98.04" transform="translate(50.46 207.7) rotate(-47.27)"/><rect class="cls-1" x="141.73" y="77.64" width="2.41" height="37.49" transform="translate(-23.89 52.91) rotate(-19.39)"/><rect class="cls-1" x="153.13" y="95.03" width="32.2" height="2.41" transform="translate(-10.18 171.82) rotate(-52.47)"/><polygon class="cls-1" points="153.98 108.97 151.57 108.97 150.24 82.18 155.31 82.18 153.98 108.97"/><rect class="cls-1" x="151.42" y="107.86" width="8.1" height="2.41"/><rect class="cls-1" x="156.67" y="97.31" width="4.82" height="20.37"/><path class="cls-1" d="M150.36,117.68a3.62,3.62,0,0,1-3.61-3.62v-5.78a3.62,3.62,0,0,1,7.23,0v5.78A3.62,3.62,0,0,1,150.36,117.68Z"/><rect class="cls-1" x="211.16" y="95.18" width="37.49" height="2.41" transform="translate(62.69 281.28) rotate(-70.62)"/><rect class="cls-1" x="202.41" y="80.14" width="2.41" height="32.2" transform="translate(-16.49 143.95) rotate(-37.53)"/><polygon class="cls-1" points="221.28 108.97 218.87 108.97 217.53 82.18 222.6 82.18 221.28 108.97"/><rect class="cls-1" x="213.32" y="107.86" width="8.1" height="2.41"/><rect class="cls-1" x="211.35" y="97.31" width="4.82" height="20.37"/><path class="cls-1" d="M222.48,117.68a3.61,3.61,0,0,1-3.61-3.62v-5.78a3.61,3.61,0,0,1,7.22,0v5.78A3.61,3.61,0,0,1,222.48,117.68Z"/><rect class="cls-2" x="44.77" y="76.81" width="283.3" height="5.32" rx="2.62"/><path class="cls-1" d="M187.65,29.48a28.91,28.91,0,1,0,27.76,30A28.91,28.91,0,0,0,187.65,29.48Zm-1.13,39.61a10.72,10.72,0,1,1,10.72-10.72A10.72,10.72,0,0,1,186.52,69.09Z"/><circle class="cls-2" cx="186.52" cy="58.37" r="6.14"/><path class="cls-2" d="M370.64,9.85,188,9.23h-3.17L2.2,9.85a2.21,2.21,0,0,0,0,4.41L184.84,16.4H188l182.65-2.14a2.21,2.21,0,0,0,0-4.41Z"/></svg>